<svg height="800" viewBox="0 0 97.75 97.75" width="800" xmlns="http://www.w3.org/2000/svg"><ellipse cx="48.944" cy="48.719" rx="14.465" ry="14.017"/><path d="m71.333 49.501c0 11.981-10.024 21.692-22.389 21.692s-22.389-9.711-22.389-21.692c0-2.147.324-4.221.924-6.18h-6.616v30.427c0 1.576 1.288 2.863 2.863 2.863h50.159c1.576 0 2.865-1.287 2.865-2.863v-30.427h-6.341c.599 1.959.924 4.033.924 6.18z"/><path d="m65.332 35.11h8.141c1.784 0 3.242-1.458 3.242-3.242v-7.762c0-1.785-1.458-3.243-3.242-3.243h-8.141c-1.785 0-3.243 1.458-3.243 3.243v7.762c-.001 1.783 1.458 3.242 3.243 3.242z"/><path d="m48.875 0c-26.993 0-48.875 21.882-48.875 48.875s21.882 48.875 48.875 48.875 48.875-21.882 48.875-48.875-21.882-48.875-48.875-48.875zm26.77 84.891h-53.539c-5.087 0-9.246-3.765-9.246-9.244v-53.542c0-5.481 4.159-9.245 9.246-9.245h53.539c5.086 0 9.246 3.764 9.246 9.245v53.542c0 5.479-4.161 9.244-9.246 9.244z"/></svg>