<svg height="280pt" preserveAspectRatio="xMidYMid meet" viewBox="0 0 280 280" width="280pt" xmlns="http://www.w3.org/2000/svg"><g transform="matrix(.1 0 0 -.1 0 280)"><path d="m1216 2789c-526-72-974-442-1140-939-59-176-71-254-71-450 0-130 5-197 18-260 122-578 539-995 1117-1117 119-25 401-25 520 0 578 122 995 539 1117 1117 25 119 25 401 0 520-122 575-542 997-1112 1115-95 20-350 28-449 14zm67-371c11-47 19-157 12-177-8-26-54-51-95-51-51 0-74 33-89 128-7 46-11 85-9 87s12 5 23 7c18 3 21-5 31-75 6-45 18-85 27-94 18-18 62-11 71 12 5 13-4 81-19 152-5 20 2 26 36 32 4 0 9-9 12-21zm238-67c40-90 42-89 54 12 6 49 9 57 27 57 19 0 20-4 14-57-4-32-9-84-13-115-5-55-7-58-33-58-24 0-30 8-61 80-19 44-37 80-40 80-4 0-10-31-14-70-7-66-9-70-32-70-13 0-22 4-19 8 2 4 10 56 17 115 12 108 12 108 38 105 21-3 31-16 62-87zm311-5c87-38 109-78 82-145-19-49-66-91-100-91-26 0-124 38-124 48 0 8 84 212 87 212 1 0 26-11 55-24zm-848-24c25-23 46-74 46-115 0-88-114-135-172-70-28 31-50 93-43 123 16 73 115 110 169 62zm1171-151c34-43 62-68 70-65 7 3 19-5 26-17 9-17 9-24 0-27-7-2-1-18 16-43 23-32 32-38 52-33 48 11 185 23 208 19 76-16 75-15 64-29-18-22-107-56-194-75-80-17-81-18-94-57-9-25-10-40-3-42 18-6 11-40-14-59-13-10-36-51-52-92-26-68-31-75-72-92-25-11-47-17-49-15-3 3 10 51 27 108 18 57 33 110 34 118 0 8 4 17 8 20 4 4 11 20 14 38 6 29 4 32-17 32-48-1-287-27-296-33-5-3-18-24-27-46-12-26-27-42-43-46-14-3-27-4-29-2s3 23 11 47c18 50 18 50 6 50-6 0-43 24-84 53-81 58-145 89-233 112-66 17-178 21-154 5 8-5 31-10 51-10 28 0 38-5 42-20 3-11 12-20 21-20s16-7 16-15c0-9 11-21 25-27l25-11-23-11c-12-7-28-24-35-39s-21-27-30-27-62-16-117-34c-55-19-104-31-108-27s-2 21 4 37c7 16 12 32 11 37-1 4 2 7 7 7 4 0 7 19 5 41-4 56-52 103-96 94-32-7-32-5 0-96 15-43 15-48 0-63-15-14-18-14-32-1-12 13-13 21-4 41 10 20 8 27-8 39-27 20-31 19-46-15-14-32-32-39-42-15-4 13-9 12-35-2-20-12-27-22-22-33 14-32 46-80 54-80 4 0 17 16 29 35 23 40 37 41 56 2 7-15 17-27 21-27 5 0 11-11 14-26 4-23-2-28-64-59-37-19-87-48-110-64-36-24-45-27-54-15-5 8-25 17-42 20-29 6-34 3-43-21-12-32-4-48 21-42 22 6 23 3 8-25-10-19-11-19-29-1-9 10-27 26-39 36-21 17-22 16-32-9-5-15-12-54-16-88-3-34-12-70-19-81-13-18-14-16-14 20 0 71 28 171 71 262 35 73 56 102 128 174 137 136 277 193 466 192 116 0 183-17 295-73 71-36 101-59 133-102 7-10 17-14 24-10 9 6 4 20-17 52-17 25-30 49-30 53 0 20 67-7 95-38l30-33 153 42c83 22 152 45 152 51-1 15-37 55-50 55-6 0-8 4-5 10 3 5-21 50-55 99-33 50-60 93-60 96s20 5 45 5c43 0 46-2 100-69zm-1446-7c12-15 21-40 21-55 0-26 5-30 45-40 50-13 52-15 29-40-15-17-18-17-59 1-38 16-45 17-56 4-10-12-7-19 11-39 23-24 23-26 7-43-17-16-19-15-44 17-15 18-48 59-73 89l-47 56 46 38c55 46 91 49 120 12zm-181-244c56-19 102-39 102-45 0-23-22-34-46-23-13 6-25 9-27 7s-13-17-25-33c-21-27-21-31-6-54 14-21 14-26 2-38-12-13-24-2-82 81-64 90-68 98-55 121 7 14 18 23 23 22zm1072-116c-352-80-660-244-848-450-84-91-127-179-127-260 0-55 4-66 34-104 26-33 29-40 12-31-12 7-33 30-48 52-22 34-27 51-26 102 1 110 60 217 182 337 188 183 474 319 766 365 140 22 171 16 55-11zm335-149c166-351-9-764-383-903-52-19-92-26-177-29-135-6-212 10-334 69-150 74-278 222-327 379-10 33-14 65-9 75 5 15 10 8 22-31 8-27 18-53 21-57 4-4 26 20 49 54 33 47 40 65 33 79-6 10-10 33-10 53 0 29 7 41 44 71 43 35 46 36 69 20 25-16 77-84 77-100 0-5 14-24 32-42l32-33-43-40c-23-22-52-40-63-40s-32-9-47-19c-15-11-43-22-62-26-20-4-48-15-63-24l-27-18 51-77c116-173 307-272 520-270 183 2 315 58 447 189 76 76 82 84 74 111-7 26-12 29-42 26-19-1-39-9-45-17-21-28-37-18-30 18 7 38-16 95-43 105-9 3-25 16-36 29-25 28-35 29-28 3 3-11 11-20 19-20 18 0 28-20 17-31s-79-18-91-10c-5 3-14 33-19 66l-10 60-2-47c-1-56 13-98 34-98 8 0 15-4 15-9 0-13-21-27-63-42-28-10-42-23-52-46-8-19-25-37-40-43-14-5-25-13-25-17 0-15-67-45-91-41-22 3-24 8-27 67-2 48 1 68 14 82 10 11 18 38 19 64 2 49-7 61-61 88-43 22-58 65-38 112 11 26 22 37 44 42 17 3 30 9 30 14 0 4 9 11 20 14 11 4 18 10 15 15-11 19 8 40 34 38 20-2 26 1 25 15-1 11 6 17 20 18 17 1 17 2 4 6-21 5-24 29-5 37 6 3-1 3-18-1l-30-5 27 26c15 14 29 26 31 26 3 0 7-18 11-40 5-31 11-40 26-40 10 0 24 8 29 18 9 15 12 15 21 2 9-12 10-12 7 5-2 11-9 19-15 18-13-3-15 7-6 31 3 9 15 16 26 16s31 9 45 20c41 32 85 26 127-17 42-44 45-57 11-51-16 4-25 1-25-8 0-15 44-12 65 6 13 11 14 10 9-3-4-12 1-16 28-16 47 1 77-6 90-19 8-8 16-5 30 14 11 13 24 22 29 19 15-10 10 23-7 39-19 20-62 12-86-15-20-23-33-10-15 15 7 10 32 20 55 23l42 6-35 65c-19 36-32 70-28 75 9 14 30-16 68-98zm-1473 64c-2-8-13-48-24-89-15-57-20-108-21-210-1-173 22-271 99-427 30-62 52-118 49-124-9-13-33 21-79 111-74 144-114 342-101 500 6 71 39 231 51 252 9 13 30 3 26-13zm966-36c2-8-6-13-22-13-25 0-33 10-19 24 10 10 36 3 41-11zm870-281c2-51 0-62-13-62-12 0-15 13-15 66 0 48 3 65 13 62 7-3 13-28 15-66zm85-143c38-20 76-61 82-90 7-32-35-139-55-139-9 0-189 86-199 96-8 7 33 87 60 115 29 31 72 38 112 18zm-191-304c36-30 71-55 76-55s17 11 26 25c19 28 34 32 42 10 3-8-10-34-31-60l-37-45-37 32c-20 18-60 51-88 72-43 33-50 42-42 58 5 10 13 18 17 18s37-25 74-55zm-682 5c-23-32-40-39-40-16 0 19 27 46 46 46 12 0 11-6-6-30zm561-100c22-21 30-38 27-57-3-24 1-28 39-37 53-14 57-19 34-40-17-16-21-16-60 0-57 23-75 7-42-37 21-29 22-31 5-43-15-11-26-3-89 73-81 95-80 92-11 143 49 35 60 35 97-2zm-1433-65c34-22 62-45 62-52 0-21-19-24-43-8-24 15-25 15-79-64-49-72-55-78-72-65-18 13-16 17 33 88 28 41 51 79 51 84 0 6-9 14-20 17-20 6-26 25-13 39 9 8 8 8 81-39zm1224-75c33-25 58-79 58-122-1-54-48-98-107-98-38 0-69 23-93 70-35 68-24 116 33 150 41 25 78 25 109 0zm-1065-18c9-6 7-18-7-50l-19-42 36-15c52-22 61-19 74 25 12 40 23 47 48 31 11-7 5-29-29-112-23-57-44-105-45-107-2-2-12 1-24 7-20 11-20 11-1 54l19 42-37 17c-53 24-57 22-72-22-12-38-40-54-54-32-8 13 75 212 88 212 6 0 16-4 23-8zm833-59c0-5-7-53-15-108s-15-105-15-111c0-7-11-14-25-16-22-5-29 2-53 45l-27 51-9-57c-8-48-13-58-33-63-13-4-25-5-27-3-15 16-104 208-99 213 22 21 43 1 78-76l38-83 9 40c10 42 7 98-6 128-7 13-3 17 16 17 20 0 30-13 63-81l40-81 7 39c4 21 9 64 13 96 5 47 10 57 26 57 10 0 19-3 19-7zm-460-56c0-18-5-19-50-13-52 7-50 8-54-36-1-7 14-15 34-18 51-7 47-35-5-36-34 0-41-4-43-23-4-29 12-41 56-41 26 0 32-4 32-21 0-20-3-21-57-15-32 4-65 9-74 12-16 4-16 1 16 199l5 31 70-10c59-8 70-13 70-29z"/><path d="m1772 2243-31-68 25-13c36-19 66-11 85 23 31 56 32 73 5 100-14 14-31 25-39 25s-28-30-45-67z"/><path d="m872 2288c-18-18-15-58 8-95 24-40 48-53 77-42 34 13 39 51 11 101-18 34-30 44-53 46-17 2-36-3-43-10z"/><path d="m614 2126c-7-17 25-65 43-66 21 0 35 37 23 60-13 23-58 27-66 6z"/><path d="m435 1899c5-8 18-26 29-41 18-26 21-27 38-11 24 22 23 29-9 41-16 5-37 13-47 18-15 6-17 4-11-7z"/><path d="m1931 1504c-17-38-6-41 12-5 9 17 12 31 8 31s-13-12-20-26z"/><path d="m2284 1195c-9-14-14-31-11-37 3-7 32-28 65-46l61-33 17 32c21 41 9 70-39 92-49 23-74 21-93-8z"/><path d="m1988 829c-23-13-22-18 8-52 20-24 27-27 39-17 18 15 20 51 3 68-14 14-27 15-50 1z"/><path d="m1772 684c-14-9-22-26-22-43 0-37 40-95 69-99 25-4 61 23 61 45 0 24-39 92-59 103-25 13-22 13-49-6z"/></g></svg>